# xmcd
#
# Track frame offsets: 
#        150
#        20810
#        43575
#        63520
#        84950
#        102622
#        115037
#        132325
#        144055
#        158425
#
# Disc length: 2367 seconds
#
# Revision: 1
# Processed by: cddbd v1.5.2PL0 Copyright (c) Steve Scherf et al.
# Submitted via: ExactAudioCopy v0.99pb4
#
DISCID=7b093d0a
DTITLE=Анатолий Полотно - В Мелодиях И Красках. Часть 2
DYEAR=1955
DGENRE=Chanson
TTITLE0=Колыма
TTITLE1=Наше Танго
TTITLE2=Стрелка
TTITLE3=Ту-Ту-Ту
TTITLE4=Чёрное Море
TTITLE5=Белла-Шоколадочка
TTITLE6=Двое На Дороге
TTITLE7=Жмеринка
TTITLE8=Острова
TTITLE9=Кафе
EXTD=
EXTT0=сл. Ан.Полотно/муз. Ан.Полотно, С.Мотин
EXTT1=сл. Ан.Полотно/муз. Ан.Полотно, С.Мотин
EXTT2=сл. Ан.Полотно/муз. Ан.Полотно
EXTT3=сл. Ан.Полотно, В.Батенков/муз. Ан.Полотно, С.Мотин
EXTT4=сл. Ан.Полотно/муз. Ан.Полотно
EXTT5=сл. Ан.Полотно/муз. Ан.Полотно
EXTT6=сл. Ан.Полотно/муз. Ан.Полотно, С.Мотин
EXTT7=сл. Ан.Полотно/муз. Ан.Полотно, С.Мотин
EXTT8=сл. Ан.Полотно/муз. Ан.Полотно, С.Мотин
EXTT9=сл. Ан.Полотно, В.Батенков/муз. Ан.Полотно
PLAYORDER=
